<?xml version="1.0" encoding="UTF-8"?>
<svg id="_Слой_2" data-name="Слой 2" xmlns="http://www.w3.org/2000/svg" viewBox="0 0 39.96 39.93">
  <defs>
    <style>
      .cls-1 {
        fill: #fff;
        stroke-width: 0px;
      }

      .cls-2 {
        fill: none;
        stroke: #fff;
        stroke-miterlimit: 10;
        stroke-width: 2.5px;
      }
    </style>
  </defs>
  <g id="_Слой_1-2" data-name="Слой 1">
    <g>
      <path class="cls-2" d="m20.01,1.25c10.31-.03,18.75,8.45,18.7,18.82-.05,10.28-8.43,18.61-18.8,18.61-10.28,0-18.74-8.48-18.67-18.9C1.32,9.59,9.71,1.25,20.01,1.25Z"/>
      <path class="cls-1" d="m9.59,26.72c2.47-2.39,4.93-4.78,7.43-7.2.34.26.8.61,1.26.97,1.04.8,2.1.81,3.14.02.46-.35.92-.71,1.27-.98,2.54,2.47,5.06,4.91,7.58,7.36-.41.54-.92.71-1.5.71-.74,0-1.48,0-2.22,0-5.05,0-10.11,0-15.16,0-.7,0-1.31-.17-1.78-.87Z"/>
      <path class="cls-1" d="m10.11,12.57c.39-.07.77-.21,1.16-.21,5.81-.01,11.62-.01,17.43,0,.34,0,.68.1,1.02.15,0,.04,0,.07.01.11-.66.52-1.32,1.04-1.99,1.56-2.32,1.8-4.63,3.61-6.95,5.41-.68.53-1.18.54-1.86.01-2.89-2.25-5.78-4.5-8.66-6.76-.05-.04-.1-.08-.14-.13,0-.05,0-.09-.01-.14Z"/>
      <path class="cls-1" d="m23.66,18.75c2.31-1.8,4.55-3.54,6.84-5.33.04.22.1.38.1.55,0,3.83,0,7.67,0,11.5,0,.05-.01.09,0,.03-2.28-2.22-4.6-4.47-6.95-6.75Z"/>
      <path class="cls-1" d="m16.05,18.76c-2.26,2.2-4.48,4.36-6.65,6.46v-11.66c2.25,1.76,4.42,3.46,6.65,5.2Z"/>
    </g>
  </g>
</svg>