<?xml version="1.0" encoding="UTF-8"?>
<svg id="_Слой_2" data-name="Слой 2" xmlns="http://www.w3.org/2000/svg" viewBox="0 0 40 40.11">
  <defs>
    <style>
      .cls-1 {
        fill: #fff;
        stroke-width: 0px;
      }
    </style>
  </defs>
  <g id="_Слой_1-2" data-name="Слой 1">
    <path class="cls-1" d="m8.64,0c1.3.29,2.22,1.14,3.11,2.05,1.53,1.57,3.11,3.1,4.6,4.7,1.35,1.45,1.34,3.59.01,5.05-.98,1.08-2.04,2.1-3.07,3.13-.22.21-.28.35-.13.65.85,1.77,2.02,3.32,3.3,4.78,1.87,2.13,3.94,4.03,6.33,5.57.63.41,1.31.75,1.98,1.13.92-.92,1.8-1.82,2.71-2.7.33-.33.68-.66,1.06-.92,1.53-1.05,3.43-.95,4.78.35,1.89,1.82,3.75,3.67,5.56,5.57,1.6,1.68,1.46,3.94-.26,5.74-1,1.05-2.02,2.08-3.04,3.1-1.58,1.58-3.53,2.07-5.7,1.87-3.48-.32-6.58-1.71-9.59-3.35-4.1-2.25-7.71-5.11-10.86-8.57-2.72-2.99-5.08-6.22-6.86-9.86-1.03-2.11-1.92-4.28-2.33-6.61-.31-1.78-.43-3.56.34-5.26.27-.59.61-1.17,1.04-1.64,1.12-1.21,2.29-2.36,3.46-3.51.66-.65,1.47-1.06,2.38-1.27h1.17Zm21.75,38.07c1.56.02,2.68-.3,3.56-1.16,1.13-1.1,2.23-2.23,3.31-3.39.9-.97.91-1.94,0-2.88-1.74-1.79-3.51-3.55-5.29-5.29-.74-.73-1.66-.72-2.48-.07-.17.14-.34.29-.49.45-.97.97-1.94,1.94-2.91,2.9-.63.63-1.32.74-2.11.34-.58-.29-1.16-.59-1.72-.93-2.65-1.6-4.94-3.62-7-5.92-1.66-1.85-3.16-3.81-4.17-6.11-.41-.93-.3-1.55.43-2.26.24-.24.5-.46.74-.7.83-.83,1.68-1.65,2.47-2.51.74-.81.74-1.77-.03-2.56-1.78-1.82-3.58-3.62-5.4-5.4-.24-.23-.59-.4-.91-.49-.82-.22-1.44.2-1.99.74-.98.96-1.97,1.91-2.9,2.92-.45.49-.85,1.07-1.11,1.68-.54,1.27-.4,2.61-.13,3.93.53,2.64,1.58,5.09,2.88,7.43,2.29,4.09,5.19,7.69,8.67,10.83,3.41,3.07,7.23,5.51,11.49,7.23,1.74.7,3.53,1.16,5.08,1.21Z"/>
  </g>
</svg>