<?xml version="1.0" encoding="UTF-8"?>
<svg id="_Слой_2" data-name="Слой 2" xmlns="http://www.w3.org/2000/svg" viewBox="0 0 39.94 39.93">
  <defs>
    <style>
      .cls-1 {
        fill: #fff;
        stroke-width: 0px;
      }
    </style>
  </defs>
  <g id="_Слой_1-2" data-name="Слой 1">
    <g>
      <path class="cls-1" d="m21.38,39.93h-2.81c-.11-.03-.22-.06-.34-.07-.81-.12-1.63-.18-2.42-.36-5.13-1.14-9.23-3.86-12.23-8.16C.5,26.9-.58,21.97.29,16.64c.66-4.06,2.44-7.6,5.33-10.52C10.5,1.18,16.43-.76,23.29.27c3.7.56,6.97,2.16,9.78,4.63,3.51,3.09,5.72,6.93,6.56,11.55.13.7.21,1.41.31,2.11v2.81c-.03.13-.06.25-.08.38-.09.65-.14,1.32-.27,1.96-.85,4.31-2.89,7.97-6.11,10.95-2.84,2.62-6.18,4.29-9.99,4.96-.7.12-1.41.21-2.11.31Zm-1.41-37.44c-9.62.02-17.48,7.9-17.46,17.49.03,9.61,7.85,17.43,17.46,17.45,9.59.02,17.48-7.86,17.48-17.47,0-9.61-7.88-17.49-17.48-17.47Z"/>
      <path class="cls-1" d="m15.53,22.53c-.75.32-1.5.63-2.24.97-.51.23-.97.19-1.44-.11-1.54-.99-3.08-1.98-4.63-2.96-.46-.29-.74-.67-.71-1.21.04-.59.39-.95.94-1.16,6.94-2.71,13.88-5.43,20.81-8.15.52-.21,1.01-.24,1.46.14.42.37.5.83.4,1.38-.95,5.14-1.88,10.27-2.81,15.41-.13.73-.26,1.45-.4,2.18-.19,1-1.01,1.42-1.92.96-1.75-.87-3.51-1.75-5.25-2.63-.25-.12-.39-.12-.59.09-.74.77-1.5,1.51-2.25,2.27-.42.43-.91.61-1.48.36-.55-.24-.77-.69-.76-1.28.01-1.55,0-3.09,0-4.64,0-.45.14-.81.47-1.1.16-.14.31-.27.47-.41-.02-.03-.04-.06-.07-.1Zm9.21,4.51c.85-4.7,1.7-9.34,2.55-14.03-5.6,2.19-11.14,4.36-16.75,6.56.71.45,1.35.85,1.97,1.26.2.14.36.13.57.04,1.12-.5,2.26-.98,3.39-1.47,1.4-.61,2.8-1.22,4.21-1.83.7-.3,1.34-.12,1.69.48.33.55.24,1.08-.29,1.61-1.48,1.48-2.93,2.99-4.45,4.42-.58.54-.41,1.11-.39,1.73.37-.31.68-.66,1.01-.99.46-.45.95-.52,1.53-.25.5.24,1,.49,1.5.74,1.13.57,2.27,1.13,3.47,1.73Z"/>
    </g>
  </g>
</svg>