<?xml version="1.0" encoding="UTF-8"?>
<svg id="_Слой_2" data-name="Слой 2" xmlns="http://www.w3.org/2000/svg" viewBox="0 0 42.45 42.41">
  <defs>
    <style>
      .cls-1 {
        fill: #fff;
        stroke-width: 0px;
      }

      .cls-2 {
        fill: none;
        stroke: #fff;
        stroke-miterlimit: 10;
        stroke-width: 2.5px;
      }
    </style>
  </defs>
  <g id="_Слой_1-2" data-name="Слой 1">
    <g>
      <path class="cls-2" d="m41.2,19.79v2.81c-.03.11-.06.22-.08.34-.09.66-.13,1.32-.26,1.96-.89,4.5-3.03,8.3-6.49,11.33-2.91,2.55-6.29,4.11-10.12,4.7-.54.08-1.07.15-1.61.23h-2.81c-.09-.02-.17-.06-.26-.07-1.72-.12-3.38-.5-5-1.07C5.5,36.87-.1,27.38,1.53,17.91c.59-3.43,1.91-6.56,4.15-9.23C10.63,2.81,16.96.42,24.55,1.5c3.13.45,5.98,1.7,8.51,3.6,4.23,3.17,6.87,7.36,7.83,12.58.13.7.21,1.41.31,2.11Z"/>
      <path class="cls-1" d="m23.42,18.16c0,.86,0,1.71,0,2.57,0,.06,0,.14.03.19.13.21.23.54.41.59.17.05.47-.14.63-.31,1.36-1.43,2.31-3.12,3.04-4.94.34-.85.44-.93,1.34-.93,1.2,0,2.39,0,3.59,0,.27,0,.55.03.81.1.35.09.48.36.4.72-.19.88-.67,1.63-1.18,2.35-.71.99-1.44,1.97-2.17,2.95-.91,1.23-.9,1.45.17,2.51,1.03,1.01,2.08,2,2.87,3.23.08.12.16.24.22.37.33.7,0,1.39-.76,1.43-1.36.06-2.73.04-4.09-.02-.64-.02-1.18-.37-1.62-.84-.54-.56-1.07-1.14-1.61-1.7-.19-.2-.39-.39-.61-.54-.51-.36-.98-.2-1.14.39-.14.53-.25,1.06-.32,1.6-.1.73-.39,1.01-1.13,1.06-3.56.26-6.32-1.17-8.47-3.93-2.08-2.67-3.6-5.66-4.97-8.74-.27-.6-.01-.98.63-.98,1.16,0,2.31.03,3.47.04.63,0,1.04.31,1.27.9.67,1.69,1.55,3.25,2.67,4.69.16.2.35.39.55.54.39.3.7.2.81-.27.11-.46.22-.94.23-1.42.02-.9-.03-1.79-.07-2.69-.03-.63-.36-.99-1-1.19-.48-.15-.53-.36-.16-.71.37-.35.83-.43,1.3-.43,1.22,0,2.44,0,3.66.07.81.04,1.16.44,1.19,1.25.03.7,0,1.4,0,2.1Z"/>
    </g>
  </g>
</svg>