<?xml version="1.0" encoding="UTF-8"?>
<svg id="_Слой_2" data-name="Слой 2" xmlns="http://www.w3.org/2000/svg" viewBox="0 0 42.5 42.5">
  <defs>
    <style>
      .cls-1 {
        fill: #fff;
      }

      .cls-1, .cls-2 {
        stroke: #fff;
        stroke-miterlimit: 10;
      }

      .cls-2 {
        fill: none;
        stroke-width: 2.5px;
      }
    </style>
  </defs>
  <g id="_Слой_1-2" data-name="Слой 1">
    <g>
      <path class="cls-2" d="m19.85,1.25c.94,0,1.87,0,2.81,0,.1.03.19.06.29.07.81.12,1.63.18,2.43.35,4.22.91,7.79,2.96,10.69,6.16,2.57,2.84,4.21,6.15,4.87,9.94.12.71.21,1.43.31,2.15v2.66c-.02.11-.05.22-.07.34-.18,1.07-.27,2.17-.54,3.22-1.36,5.27-4.38,9.35-9,12.2-4.11,2.52-8.59,3.38-13.35,2.69-2.75-.4-5.3-1.35-7.64-2.84-.26-.17-.48-.21-.79-.11-2.29.75-4.59,1.48-6.89,2.21-.11.04-.23.06-.39.1.03-.11.05-.15.06-.2.77-2.29,1.53-4.58,2.3-6.86.08-.25.06-.43-.08-.65-.41-.63-.83-1.26-1.19-1.92-2.09-3.85-2.82-7.96-2.23-12.28.53-3.88,2.1-7.32,4.68-10.28,3.22-3.69,7.26-5.94,12.12-6.71.53-.08,1.07-.15,1.61-.23Z"/>
      <path class="cls-1" d="m27.47,32.31c-.87-.2-1.86-.36-2.8-.65-2.5-.76-4.87-1.8-6.94-3.43-2.33-1.82-4.25-4.01-5.94-6.42-.81-1.16-1.53-2.35-1.95-3.71-.82-2.64-.46-5.02,1.52-7.07.63-.65,1.43-.78,2.28-.84,1.02-.07,1.6.36,1.95,1.32.48,1.33,1.04,2.63,1.63,3.92.31.69.18,1.26-.29,1.79-.4.46-.81.91-1.21,1.38-.37.43-.4.71-.12,1.17,1.84,3.06,4.31,5.42,7.65,6.79.96.39,1.38.29,2.02-.54.39-.5.76-1.02,1.14-1.53.49-.67.94-.81,1.68-.47,1.51.7,2.99,1.44,4.49,2.15.37.17.5.44.49.84-.07,2.64-1.08,4-3.9,4.95-.5.17-1.04.21-1.7.34Z"/>
    </g>
  </g>
</svg>