<?xml version="1.0" encoding="UTF-8"?>
<svg id="_Слой_2" data-name="Слой 2" xmlns="http://www.w3.org/2000/svg" viewBox="0 0 41 55.34">
  <defs>
    <style>
      .cls-1 {
        fill: #fff;
        stroke: #fff;
        stroke-miterlimit: 10;
      }
    </style>
  </defs>
  <g id="_Слой_1-2" data-name="Слой 1">
    <g>
      <path class="cls-1" d="m22.1.5c1,.18,2.03.28,3.01.54,7.9,2.11,12.86,7.15,14.91,15.05,1.04,4.04.31,7.89-1.31,11.66-2.16,5-5,9.6-8.06,14.08-2.94,4.31-6.09,8.46-9.4,12.49-.57.69-.89.7-1.43.03-4.76-5.81-9.24-11.83-13.14-18.26-2.08-3.43-3.97-6.95-5.25-10.77-1.73-5.12-.9-9.99,1.66-14.58C6.05,5.4,10.65,2.15,16.63.87c.75-.16,1.53-.25,2.29-.37,1.06,0,2.12,0,3.18,0Zm-1.62,52.67c.12-.13.17-.18.21-.24,3.65-4.5,7.11-9.14,10.3-13.99,2.53-3.85,4.88-7.81,6.67-12.07,1.37-3.25,1.89-6.57,1.2-10.08C36.91,6.95,27.27.27,17.35,2.09,10.19,3.4,5.34,7.62,2.84,14.43c-1.31,3.56-1.51,7.22-.06,10.82.89,2.22,1.84,4.43,2.96,6.55,2.92,5.52,6.52,10.62,10.27,15.6,1.45,1.93,2.96,3.82,4.48,5.78Z"/>
      <path class="cls-1" d="m20.51,30.16c-5.71-.07-9.82-4.75-9.68-10.06.14-5.08,4.56-9.39,9.8-9.29,5.67.1,9.68,4.79,9.54,10.02-.13,5.03-4.55,9.37-9.67,9.33Zm0-18.03c-4.68.03-8.42,3.77-8.39,8.38.03,4.66,3.8,8.35,8.5,8.33,4.55-.02,8.28-3.82,8.26-8.41-.02-4.57-3.81-8.32-8.37-8.3Z"/>
    </g>
  </g>
</svg>